<mxfile host="app.diagrams.net" modified="2023-05-04T09:46:44.537Z" agent="Mozilla/5.0 (Macintosh; Intel Mac OS X 10_15_7) AppleWebKit/537.36 (KHTML, like Gecko) Chrome/111.0.0.0 Safari/537.36" etag="hIZIhfrsc9MMVvr6NKMC" version="21.2.7" type="github">
  <diagram id="C5RBs43oDa-KdzZeNtuy" name="Page-1">
    <mxGraphModel dx="1912" dy="2230" grid="1" gridSize="10" guides="1" tooltips="1" connect="1" arrows="1" fold="1" page="1" pageScale="1" pageWidth="827" pageHeight="1169" math="0" shadow="0">
      <root>
        <mxCell id="WIyWlLk6GJQsqaUBKTNV-0" />
        <mxCell id="WIyWlLk6GJQsqaUBKTNV-1" parent="WIyWlLk6GJQsqaUBKTNV-0" />
        <mxCell id="WIyWlLk6GJQsqaUBKTNV-2" value="" style="rounded=0;html=1;jettySize=auto;orthogonalLoop=1;fontSize=11;endArrow=block;endFill=0;endSize=8;strokeWidth=1;shadow=0;labelBackgroundColor=none;edgeStyle=orthogonalEdgeStyle;" parent="WIyWlLk6GJQsqaUBKTNV-1" source="WIyWlLk6GJQsqaUBKTNV-3" edge="1">
          <mxGeometry relative="1" as="geometry">
            <mxPoint x="340" y="85" as="targetPoint" />
          </mxGeometry>
        </mxCell>
        <mxCell id="WIyWlLk6GJQsqaUBKTNV-3" value="开始" style="rounded=1;whiteSpace=wrap;html=1;fontSize=12;glass=0;strokeWidth=1;shadow=0;" parent="WIyWlLk6GJQsqaUBKTNV-1" vertex="1">
          <mxGeometry x="280" y="-45" width="120" height="40" as="geometry" />
        </mxCell>
        <mxCell id="vBeYJNklO1ELNf4Jy45x-38" style="edgeStyle=orthogonalEdgeStyle;rounded=0;orthogonalLoop=1;jettySize=auto;html=1;" edge="1" parent="WIyWlLk6GJQsqaUBKTNV-1" source="vBeYJNklO1ELNf4Jy45x-16" target="vBeYJNklO1ELNf4Jy45x-37">
          <mxGeometry relative="1" as="geometry">
            <mxPoint x="339" y="817" as="sourcePoint" />
          </mxGeometry>
        </mxCell>
        <mxCell id="vBeYJNklO1ELNf4Jy45x-42" value="否" style="edgeLabel;html=1;align=center;verticalAlign=middle;resizable=0;points=[];" vertex="1" connectable="0" parent="vBeYJNklO1ELNf4Jy45x-38">
          <mxGeometry x="-0.05" y="2" relative="1" as="geometry">
            <mxPoint x="-2" as="offset" />
          </mxGeometry>
        </mxCell>
        <mxCell id="vBeYJNklO1ELNf4Jy45x-0" value="" style="endArrow=none;dashed=1;html=1;dashPattern=1 3;strokeWidth=2;rounded=0;" edge="1" parent="WIyWlLk6GJQsqaUBKTNV-1">
          <mxGeometry width="50" height="50" relative="1" as="geometry">
            <mxPoint x="40" y="45" as="sourcePoint" />
            <mxPoint x="750" y="45" as="targetPoint" />
          </mxGeometry>
        </mxCell>
        <mxCell id="vBeYJNklO1ELNf4Jy45x-1" value="" style="endArrow=none;dashed=1;html=1;dashPattern=1 3;strokeWidth=2;rounded=0;" edge="1" parent="WIyWlLk6GJQsqaUBKTNV-1">
          <mxGeometry width="50" height="50" relative="1" as="geometry">
            <mxPoint x="40" y="343" as="sourcePoint" />
            <mxPoint x="760" y="343" as="targetPoint" />
          </mxGeometry>
        </mxCell>
        <mxCell id="vBeYJNklO1ELNf4Jy45x-30" style="edgeStyle=orthogonalEdgeStyle;rounded=0;orthogonalLoop=1;jettySize=auto;html=1;exitX=0.5;exitY=1;exitDx=0;exitDy=0;entryX=0.5;entryY=0;entryDx=0;entryDy=0;" edge="1" parent="WIyWlLk6GJQsqaUBKTNV-1" source="vBeYJNklO1ELNf4Jy45x-3" target="vBeYJNklO1ELNf4Jy45x-4">
          <mxGeometry relative="1" as="geometry" />
        </mxCell>
        <mxCell id="vBeYJNklO1ELNf4Jy45x-3" value="设计提供初步页面范围" style="rounded=1;whiteSpace=wrap;html=1;fontSize=12;glass=0;strokeWidth=1;shadow=0;" vertex="1" parent="WIyWlLk6GJQsqaUBKTNV-1">
          <mxGeometry x="264" y="85" width="146" height="57" as="geometry" />
        </mxCell>
        <mxCell id="vBeYJNklO1ELNf4Jy45x-10" style="edgeStyle=orthogonalEdgeStyle;rounded=0;orthogonalLoop=1;jettySize=auto;html=1;exitX=0.5;exitY=1;exitDx=0;exitDy=0;" edge="1" parent="WIyWlLk6GJQsqaUBKTNV-1" source="vBeYJNklO1ELNf4Jy45x-4" target="vBeYJNklO1ELNf4Jy45x-6">
          <mxGeometry relative="1" as="geometry" />
        </mxCell>
        <mxCell id="vBeYJNklO1ELNf4Jy45x-4" value="研发根据页面排查需要替换的样式" style="rounded=1;whiteSpace=wrap;html=1;fontSize=12;glass=0;strokeWidth=1;shadow=0;" vertex="1" parent="WIyWlLk6GJQsqaUBKTNV-1">
          <mxGeometry x="259" y="165" width="161" height="57" as="geometry" />
        </mxCell>
        <mxCell id="vBeYJNklO1ELNf4Jy45x-11" style="edgeStyle=orthogonalEdgeStyle;rounded=0;orthogonalLoop=1;jettySize=auto;html=1;exitX=0.5;exitY=1;exitDx=0;exitDy=0;" edge="1" parent="WIyWlLk6GJQsqaUBKTNV-1" source="vBeYJNklO1ELNf4Jy45x-6" target="vBeYJNklO1ELNf4Jy45x-8">
          <mxGeometry relative="1" as="geometry" />
        </mxCell>
        <mxCell id="vBeYJNklO1ELNf4Jy45x-6" value="提供统计结果给设计" style="rounded=1;whiteSpace=wrap;html=1;fontSize=12;glass=0;strokeWidth=1;shadow=0;" vertex="1" parent="WIyWlLk6GJQsqaUBKTNV-1">
          <mxGeometry x="260" y="252" width="160" height="50" as="geometry" />
        </mxCell>
        <mxCell id="vBeYJNklO1ELNf4Jy45x-17" style="edgeStyle=orthogonalEdgeStyle;rounded=0;orthogonalLoop=1;jettySize=auto;html=1;exitX=0.5;exitY=1;exitDx=0;exitDy=0;" edge="1" parent="WIyWlLk6GJQsqaUBKTNV-1" source="vBeYJNklO1ELNf4Jy45x-8" target="vBeYJNklO1ELNf4Jy45x-16">
          <mxGeometry relative="1" as="geometry" />
        </mxCell>
        <mxCell id="vBeYJNklO1ELNf4Jy45x-8" value="设计根据统计结果，&lt;br&gt;一一指出对应token" style="rounded=1;whiteSpace=wrap;html=1;fontSize=12;glass=0;strokeWidth=1;shadow=0;" vertex="1" parent="WIyWlLk6GJQsqaUBKTNV-1">
          <mxGeometry x="259" y="432" width="161" height="58" as="geometry" />
        </mxCell>
        <mxCell id="vBeYJNklO1ELNf4Jy45x-12" value="研发确定替换范围阶段" style="text;html=1;strokeColor=none;fillColor=none;align=center;verticalAlign=middle;whiteSpace=wrap;rounded=0;" vertex="1" parent="WIyWlLk6GJQsqaUBKTNV-1">
          <mxGeometry x="70" y="153" width="130" height="30" as="geometry" />
        </mxCell>
        <mxCell id="vBeYJNklO1ELNf4Jy45x-13" value="" style="endArrow=none;dashed=1;html=1;dashPattern=1 3;strokeWidth=2;rounded=0;" edge="1" parent="WIyWlLk6GJQsqaUBKTNV-1">
          <mxGeometry width="50" height="50" relative="1" as="geometry">
            <mxPoint x="50" y="557" as="sourcePoint" />
            <mxPoint x="770" y="557" as="targetPoint" />
          </mxGeometry>
        </mxCell>
        <mxCell id="vBeYJNklO1ELNf4Jy45x-14" value="设计确定对应关系阶段" style="text;html=1;strokeColor=none;fillColor=none;align=center;verticalAlign=middle;whiteSpace=wrap;rounded=0;" vertex="1" parent="WIyWlLk6GJQsqaUBKTNV-1">
          <mxGeometry x="70" y="442" width="130" height="30" as="geometry" />
        </mxCell>
        <mxCell id="vBeYJNklO1ELNf4Jy45x-40" style="edgeStyle=orthogonalEdgeStyle;rounded=0;orthogonalLoop=1;jettySize=auto;html=1;exitX=1;exitY=0.5;exitDx=0;exitDy=0;entryX=0.5;entryY=0;entryDx=0;entryDy=0;" edge="1" parent="WIyWlLk6GJQsqaUBKTNV-1" source="vBeYJNklO1ELNf4Jy45x-16" target="vBeYJNklO1ELNf4Jy45x-39">
          <mxGeometry relative="1" as="geometry" />
        </mxCell>
        <mxCell id="vBeYJNklO1ELNf4Jy45x-41" value="是" style="edgeLabel;html=1;align=center;verticalAlign=middle;resizable=0;points=[];" vertex="1" connectable="0" parent="vBeYJNklO1ELNf4Jy45x-40">
          <mxGeometry x="-0.659" y="1" relative="1" as="geometry">
            <mxPoint as="offset" />
          </mxGeometry>
        </mxCell>
        <mxCell id="vBeYJNklO1ELNf4Jy45x-16" value="旧代码应用方式&lt;br&gt;是var变量&lt;br&gt;或者&lt;br&gt;具体数值？" style="rhombus;whiteSpace=wrap;html=1;shadow=0;fontFamily=Helvetica;fontSize=12;align=center;strokeWidth=1;spacing=6;spacingTop=-4;" vertex="1" parent="WIyWlLk6GJQsqaUBKTNV-1">
          <mxGeometry x="241" y="580" width="198" height="123" as="geometry" />
        </mxCell>
        <mxCell id="vBeYJNklO1ELNf4Jy45x-21" value="" style="endArrow=none;dashed=1;html=1;dashPattern=1 3;strokeWidth=2;rounded=0;" edge="1" parent="WIyWlLk6GJQsqaUBKTNV-1">
          <mxGeometry width="50" height="50" relative="1" as="geometry">
            <mxPoint x="40" y="1497" as="sourcePoint" />
            <mxPoint x="770" y="1497" as="targetPoint" />
          </mxGeometry>
        </mxCell>
        <mxCell id="vBeYJNklO1ELNf4Jy45x-71" style="edgeStyle=orthogonalEdgeStyle;rounded=0;orthogonalLoop=1;jettySize=auto;html=1;exitX=0.5;exitY=1;exitDx=0;exitDy=0;" edge="1" parent="WIyWlLk6GJQsqaUBKTNV-1" source="vBeYJNklO1ELNf4Jy45x-22" target="vBeYJNklO1ELNf4Jy45x-27">
          <mxGeometry relative="1" as="geometry" />
        </mxCell>
        <mxCell id="vBeYJNklO1ELNf4Jy45x-22" value="设计验收" style="rounded=1;whiteSpace=wrap;html=1;fontSize=12;glass=0;strokeWidth=1;shadow=0;" vertex="1" parent="WIyWlLk6GJQsqaUBKTNV-1">
          <mxGeometry x="248" y="1560" width="191" height="50" as="geometry" />
        </mxCell>
        <mxCell id="vBeYJNklO1ELNf4Jy45x-24" value="设计验收阶段" style="text;html=1;strokeColor=none;fillColor=none;align=center;verticalAlign=middle;whiteSpace=wrap;rounded=0;" vertex="1" parent="WIyWlLk6GJQsqaUBKTNV-1">
          <mxGeometry x="50" y="1580" width="130" height="30" as="geometry" />
        </mxCell>
        <mxCell id="vBeYJNklO1ELNf4Jy45x-25" value="研发替换阶段" style="text;html=1;strokeColor=none;fillColor=none;align=center;verticalAlign=middle;whiteSpace=wrap;rounded=0;" vertex="1" parent="WIyWlLk6GJQsqaUBKTNV-1">
          <mxGeometry x="50" y="984" width="130" height="30" as="geometry" />
        </mxCell>
        <mxCell id="vBeYJNklO1ELNf4Jy45x-26" value="" style="endArrow=none;dashed=1;html=1;dashPattern=1 3;strokeWidth=2;rounded=0;" edge="1" parent="WIyWlLk6GJQsqaUBKTNV-1">
          <mxGeometry width="50" height="50" relative="1" as="geometry">
            <mxPoint x="40" y="1664" as="sourcePoint" />
            <mxPoint x="770" y="1660" as="targetPoint" />
          </mxGeometry>
        </mxCell>
        <mxCell id="vBeYJNklO1ELNf4Jy45x-27" value="结束" style="rounded=1;whiteSpace=wrap;html=1;fontSize=12;glass=0;strokeWidth=1;shadow=0;" vertex="1" parent="WIyWlLk6GJQsqaUBKTNV-1">
          <mxGeometry x="253.38" y="1720" width="181.01" height="50" as="geometry" />
        </mxCell>
        <mxCell id="vBeYJNklO1ELNf4Jy45x-51" style="edgeStyle=orthogonalEdgeStyle;rounded=0;orthogonalLoop=1;jettySize=auto;html=1;exitX=0.5;exitY=1;exitDx=0;exitDy=0;" edge="1" parent="WIyWlLk6GJQsqaUBKTNV-1" source="vBeYJNklO1ELNf4Jy45x-37" target="vBeYJNklO1ELNf4Jy45x-50">
          <mxGeometry relative="1" as="geometry" />
        </mxCell>
        <mxCell id="vBeYJNklO1ELNf4Jy45x-64" value="是" style="edgeLabel;html=1;align=center;verticalAlign=middle;resizable=0;points=[];" vertex="1" connectable="0" parent="vBeYJNklO1ELNf4Jy45x-51">
          <mxGeometry x="-0.205" relative="1" as="geometry">
            <mxPoint as="offset" />
          </mxGeometry>
        </mxCell>
        <mxCell id="vBeYJNklO1ELNf4Jy45x-37" value="&lt;br&gt;旧代码应用方式是&lt;br&gt;&amp;nbsp;通过tailwindcss&lt;br&gt;？" style="rhombus;whiteSpace=wrap;html=1;shadow=0;fontFamily=Helvetica;fontSize=12;align=center;strokeWidth=1;spacing=6;spacingTop=-4;" vertex="1" parent="WIyWlLk6GJQsqaUBKTNV-1">
          <mxGeometry x="248.44" y="767" width="181.56" height="113" as="geometry" />
        </mxCell>
        <mxCell id="vBeYJNklO1ELNf4Jy45x-72" style="edgeStyle=orthogonalEdgeStyle;rounded=0;orthogonalLoop=1;jettySize=auto;html=1;exitX=0.5;exitY=1;exitDx=0;exitDy=0;entryX=0.495;entryY=-0.147;entryDx=0;entryDy=0;entryPerimeter=0;" edge="1" parent="WIyWlLk6GJQsqaUBKTNV-1">
          <mxGeometry relative="1" as="geometry">
            <mxPoint x="720" y="880" as="sourcePoint" />
            <mxPoint x="341.36625000000004" y="1422.65" as="targetPoint" />
            <Array as="points">
              <mxPoint x="720" y="1350" />
              <mxPoint x="341" y="1350" />
            </Array>
          </mxGeometry>
        </mxCell>
        <mxCell id="vBeYJNklO1ELNf4Jy45x-39" value="替换成设计提供的对应token" style="rounded=1;whiteSpace=wrap;html=1;fontSize=12;glass=0;strokeWidth=1;shadow=0;" vertex="1" parent="WIyWlLk6GJQsqaUBKTNV-1">
          <mxGeometry x="650" y="796" width="140" height="80" as="geometry" />
        </mxCell>
        <mxCell id="vBeYJNklO1ELNf4Jy45x-44" value="操作" style="rounded=1;whiteSpace=wrap;html=1;fontSize=12;glass=0;strokeWidth=1;shadow=0;" vertex="1" parent="WIyWlLk6GJQsqaUBKTNV-1">
          <mxGeometry x="640" y="402" width="120" height="40" as="geometry" />
        </mxCell>
        <mxCell id="vBeYJNklO1ELNf4Jy45x-53" style="edgeStyle=orthogonalEdgeStyle;rounded=0;orthogonalLoop=1;jettySize=auto;html=1;exitX=0.5;exitY=1;exitDx=0;exitDy=0;" edge="1" parent="WIyWlLk6GJQsqaUBKTNV-1" source="vBeYJNklO1ELNf4Jy45x-50" target="vBeYJNklO1ELNf4Jy45x-52">
          <mxGeometry relative="1" as="geometry" />
        </mxCell>
        <mxCell id="vBeYJNklO1ELNf4Jy45x-50" value="通过&lt;a href=&quot;https://our.ones.pro/wiki/#/team/RDjYMhKq/space/GAVLkKKC/page/LiEpRTxH&quot;&gt;token2tailwind对照表&lt;/a&gt;，寻找对应的tailwindcss预设" style="rounded=1;whiteSpace=wrap;html=1;fontSize=12;glass=0;strokeWidth=1;shadow=0;" vertex="1" parent="WIyWlLk6GJQsqaUBKTNV-1">
          <mxGeometry x="250.13" y="940" width="181" height="70" as="geometry" />
        </mxCell>
        <mxCell id="vBeYJNklO1ELNf4Jy45x-60" style="edgeStyle=orthogonalEdgeStyle;rounded=0;orthogonalLoop=1;jettySize=auto;html=1;" edge="1" parent="WIyWlLk6GJQsqaUBKTNV-1" source="vBeYJNklO1ELNf4Jy45x-52" target="vBeYJNklO1ELNf4Jy45x-59">
          <mxGeometry relative="1" as="geometry" />
        </mxCell>
        <mxCell id="vBeYJNklO1ELNf4Jy45x-63" value="否" style="edgeLabel;html=1;align=center;verticalAlign=middle;resizable=0;points=[];" vertex="1" connectable="0" parent="vBeYJNklO1ELNf4Jy45x-60">
          <mxGeometry x="-0.1523" y="1" relative="1" as="geometry">
            <mxPoint as="offset" />
          </mxGeometry>
        </mxCell>
        <mxCell id="vBeYJNklO1ELNf4Jy45x-61" style="edgeStyle=orthogonalEdgeStyle;rounded=0;orthogonalLoop=1;jettySize=auto;html=1;" edge="1" parent="WIyWlLk6GJQsqaUBKTNV-1" source="vBeYJNklO1ELNf4Jy45x-52" target="vBeYJNklO1ELNf4Jy45x-57">
          <mxGeometry relative="1" as="geometry" />
        </mxCell>
        <mxCell id="vBeYJNklO1ELNf4Jy45x-62" value="是" style="edgeLabel;html=1;align=center;verticalAlign=middle;resizable=0;points=[];" vertex="1" connectable="0" parent="vBeYJNklO1ELNf4Jy45x-61">
          <mxGeometry x="-0.4497" y="-1" relative="1" as="geometry">
            <mxPoint as="offset" />
          </mxGeometry>
        </mxCell>
        <mxCell id="vBeYJNklO1ELNf4Jy45x-52" value="&lt;br&gt;存在对应的tailwindcss预设" style="rhombus;whiteSpace=wrap;html=1;shadow=0;fontFamily=Helvetica;fontSize=12;align=center;strokeWidth=1;spacing=6;spacingTop=-4;" vertex="1" parent="WIyWlLk6GJQsqaUBKTNV-1">
          <mxGeometry x="236.38" y="1070" width="207.25" height="100" as="geometry" />
        </mxCell>
        <mxCell id="vBeYJNklO1ELNf4Jy45x-67" style="edgeStyle=orthogonalEdgeStyle;rounded=0;orthogonalLoop=1;jettySize=auto;html=1;exitX=0.5;exitY=1;exitDx=0;exitDy=0;entryX=0.5;entryY=0;entryDx=0;entryDy=0;" edge="1" parent="WIyWlLk6GJQsqaUBKTNV-1" source="vBeYJNklO1ELNf4Jy45x-57" target="vBeYJNklO1ELNf4Jy45x-65">
          <mxGeometry relative="1" as="geometry">
            <Array as="points">
              <mxPoint x="635" y="1353" />
              <mxPoint x="342" y="1353" />
            </Array>
          </mxGeometry>
        </mxCell>
        <mxCell id="vBeYJNklO1ELNf4Jy45x-57" value="用对应tailwindcss预设替换" style="rounded=1;whiteSpace=wrap;html=1;fontSize=12;glass=0;strokeWidth=1;shadow=0;" vertex="1" parent="WIyWlLk6GJQsqaUBKTNV-1">
          <mxGeometry x="570" y="1220" width="130" height="70" as="geometry" />
        </mxCell>
        <mxCell id="vBeYJNklO1ELNf4Jy45x-66" style="edgeStyle=orthogonalEdgeStyle;rounded=0;orthogonalLoop=1;jettySize=auto;html=1;exitX=0.5;exitY=1;exitDx=0;exitDy=0;" edge="1" parent="WIyWlLk6GJQsqaUBKTNV-1" source="vBeYJNklO1ELNf4Jy45x-59" target="vBeYJNklO1ELNf4Jy45x-65">
          <mxGeometry relative="1" as="geometry">
            <Array as="points">
              <mxPoint x="342" y="1386" />
              <mxPoint x="342" y="1386" />
            </Array>
          </mxGeometry>
        </mxCell>
        <mxCell id="vBeYJNklO1ELNf4Jy45x-59" value="废弃tailwindcss方式，使用普通css样式编写以使用token" style="rounded=1;whiteSpace=wrap;html=1;fontSize=12;glass=0;strokeWidth=1;shadow=0;" vertex="1" parent="WIyWlLk6GJQsqaUBKTNV-1">
          <mxGeometry x="233.38" y="1246" width="214.5" height="67" as="geometry" />
        </mxCell>
        <mxCell id="vBeYJNklO1ELNf4Jy45x-70" style="edgeStyle=orthogonalEdgeStyle;rounded=0;orthogonalLoop=1;jettySize=auto;html=1;exitX=0.5;exitY=1;exitDx=0;exitDy=0;" edge="1" parent="WIyWlLk6GJQsqaUBKTNV-1" source="vBeYJNklO1ELNf4Jy45x-65" target="vBeYJNklO1ELNf4Jy45x-22">
          <mxGeometry relative="1" as="geometry" />
        </mxCell>
        <mxCell id="vBeYJNklO1ELNf4Jy45x-65" value="本地验证" style="rounded=1;whiteSpace=wrap;html=1;fontSize=12;glass=0;strokeWidth=1;shadow=0;" vertex="1" parent="WIyWlLk6GJQsqaUBKTNV-1">
          <mxGeometry x="253.38" y="1416" width="177.75" height="50" as="geometry" />
        </mxCell>
      </root>
    </mxGraphModel>
  </diagram>
</mxfile>
